<svg width="150" height="150" viewBox="0 0 150 150" fill="none" xmlns="http://www.w3.org/2000/svg">
<rect width="149" height="149" rx="8.94" fill="black" fill-opacity="0.2"/>
<path d="M45 0H7.5C5.51088 0 3.60322 0.790176 2.1967 2.1967C0.790176 3.60322 0 5.51088 0 7.5V45C0 46.9891 0.790176 48.8968 2.1967 50.3033C3.60322 51.7098 5.51088 52.5 7.5 52.5C9.48912 52.5 11.3968 51.7098 12.8033 50.3033C14.2098 48.8968 15 46.9891 15 45V15H45C46.9891 15 48.8968 14.2098 50.3033 12.8033C51.7098 11.3968 52.5 9.48912 52.5 7.5C52.5 5.51088 51.7098 3.60322 50.3033 2.1967C48.8968 0.790176 46.9891 0 45 0V0ZM45 135H15V105C15 103.011 14.2098 101.103 12.8033 99.6967C11.3968 98.2902 9.48912 97.5 7.5 97.5C5.51088 97.5 3.60322 98.2902 2.1967 99.6967C0.790176 101.103 0 103.011 0 105V142.5C0 144.489 0.790176 146.397 2.1967 147.803C3.60322 149.21 5.51088 150 7.5 150H45C46.9891 150 48.8968 149.21 50.3033 147.803C51.7098 146.397 52.5 144.489 52.5 142.5C52.5 140.511 51.7098 138.603 50.3033 137.197C48.8968 135.79 46.9891 135 45 135V135ZM142.5 0H105C103.011 0 101.103 0.790176 99.6967 2.1967C98.2902 3.60322 97.5 5.51088 97.5 7.5C97.5 9.48912 98.2902 11.3968 99.6967 12.8033C101.103 14.2098 103.011 15 105 15H135V45C135 46.9891 135.79 48.8968 137.197 50.3033C138.603 51.7098 140.511 52.5 142.5 52.5C144.489 52.5 146.397 51.7098 147.803 50.3033C149.21 48.8968 150 46.9891 150 45V7.5C150 5.51088 149.21 3.60322 147.803 2.1967C146.397 0.790176 144.489 0 142.5 0V0ZM142.5 97.5C140.511 97.5 138.603 98.2902 137.197 99.6967C135.79 101.103 135 103.011 135 105V135H105C103.011 135 101.103 135.79 99.6967 137.197C98.2902 138.603 97.5 140.511 97.5 142.5C97.5 144.489 98.2902 146.397 99.6967 147.803C101.103 149.21 103.011 150 105 150H142.5C144.489 150 146.397 149.21 147.803 147.803C149.21 146.397 150 144.489 150 142.5V105C150 103.011 149.21 101.103 147.803 99.6967C146.397 98.2902 144.489 97.5 142.5 97.5Z" fill="white"/>
<path d="M24.5478 96.9995L44.8059 51.1075H57.5901L77.9137 96.9995H64.4083L48.5428 57.4668H53.6565L37.791 96.9995H24.5478ZM35.6275 88.0834L38.971 78.5116H61.3926L64.7361 88.0834H35.6275ZM81.5938 96.9995V51.1075H102.573C106.769 51.1075 110.375 51.785 113.39 53.1399C116.45 54.4948 118.81 56.4616 120.471 59.0403C122.132 61.5753 122.962 64.591 122.962 68.0876C122.962 71.5404 122.132 74.5343 120.471 77.0693C118.81 79.5606 116.45 81.4836 113.39 82.8386C110.375 84.1498 106.769 84.8054 102.573 84.8054H88.8054L94.5746 79.3639V96.9995H81.5938ZM109.981 96.9995L98.5738 80.2817H112.407L123.88 96.9995H109.981ZM94.5746 80.7406L88.8054 74.7747H101.786C104.496 74.7747 106.507 74.1846 107.818 73.0046C109.173 71.8245 109.85 70.1855 109.85 68.0876C109.85 65.9459 109.173 64.2851 107.818 63.105C106.507 61.9249 104.496 61.3349 101.786 61.3349H88.8054L94.5746 55.3689V80.7406Z" fill="white"/>
</svg>
